<?xml version="1.0" encoding="UTF-8" standalone="no"?>
<!DOCTYPE svg PUBLIC "-//W3C//DTD SVG 1.1//EN"
 "http://www.w3.org/Graphics/SVG/1.1/DTD/svg11.dtd">
<!-- Generated by graphviz version 2.43.0 (0)
 -->
<!-- Title: %3 Pages: 1 -->
<svg width="4850pt" height="204pt"
 viewBox="0.00 0.00 4849.50 204.00" xmlns="http://www.w3.org/2000/svg" xmlns:xlink="http://www.w3.org/1999/xlink">
<g id="graph0" class="graph" transform="scale(1 1) rotate(0) translate(4 200)">
<title>%3</title>
<polygon fill="white" stroke="transparent" points="-4,4 -4,-200 4845.5,-200 4845.5,4 -4,4"/>
<!-- 2553985633539886198 -->
<g id="node1" class="node">
<title>2553985633539886198</title>
<g id="a_node1"><a xlink:title="A Materialized Layer with 1 Tasks.&#10;">
<polygon fill="none" stroke="black" points="858,-36 232,-36 232,0 858,0 858,-36"/>
<text text-anchor="middle" x="545" y="-13" font-family="Helvetica,sans-Serif" font-size="20.00">original&#45;open_dataset&#45;accumulated_direct_radiation_J_m2&#45;#0</text>
</a>
</g>
</g>
<!-- &#45;2181670643812446841 -->
<g id="node2" class="node">
<title>&#45;2181670643812446841</title>
<g id="a_node2"><a xlink:title="A Blockwise Layer with 534909 Tasks.&#10;Array Shape: (3, 8769, 61, 1606, 1906)&#10;Data Type: float64&#10;Chunk Size: (3, 1, 1, 1606, 1906)&#10;Chunk Type: numpy.ndarray&#10;">
<polygon fill="none" stroke="black" points="1090,-124 0,-124 0,-72 1090,-72 1090,-124"/>
<text text-anchor="middle" x="545" y="-88" font-family="Helvetica,sans-Serif" font-size="40.00">open_dataset&#45;accumulated_direct_radiation_J_m2&#45;#0</text>
</a>
</g>
</g>
<!-- 2553985633539886198&#45;&gt;&#45;2181670643812446841 -->
<g id="edge1" class="edge">
<title>2553985633539886198&#45;&gt;&#45;2181670643812446841</title>
<path fill="none" stroke="black" d="M545,-36.31C545,-43.79 545,-52.84 545,-61.64"/>
<polygon fill="black" stroke="black" points="541.5,-61.74 545,-71.74 548.5,-61.74 541.5,-61.74"/>
</g>
<!-- &#45;2765160368121228703 -->
<g id="node3" class="node">
<title>&#45;2765160368121228703</title>
<g id="a_node3"><a xlink:title="A Materialized Layer with 61 Tasks.&#10;Array Shape: (3, 61, 1606, 1906)&#10;Data Type: float64&#10;Chunk Size: (3, 1, 1606, 1906)&#10;Chunk Type: numpy.ndarray&#10;">
<polygon fill="none" stroke="black" points="610,-196 480,-196 480,-160 610,-160 610,-196"/>
<text text-anchor="middle" x="545" y="-173" font-family="Helvetica,sans-Serif" font-size="20.00">getitem&#45;#1</text>
</a>
</g>
</g>
<!-- &#45;2181670643812446841&#45;&gt;&#45;2765160368121228703 -->
<g id="edge2" class="edge">
<title>&#45;2181670643812446841&#45;&gt;&#45;2765160368121228703</title>
<path fill="none" stroke="black" d="M545,-124.11C545,-132.16 545,-141.12 545,-149.34"/>
<polygon fill="black" stroke="black" points="541.5,-149.59 545,-159.59 548.5,-149.59 541.5,-149.59"/>
</g>
<!-- 9091436288253401426 -->
<g id="node4" class="node">
<title>9091436288253401426</title>
<g id="a_node4"><a xlink:title="A Materialized Layer with 1 Tasks.&#10;">
<polygon fill="none" stroke="black" points="1971.5,-36 1342.5,-36 1342.5,0 1971.5,0 1971.5,-36"/>
<text text-anchor="middle" x="1657" y="-13" font-family="Helvetica,sans-Serif" font-size="20.00">original&#45;open_dataset&#45;accumulated_global_radiation_J_m2&#45;#0</text>
</a>
</g>
</g>
<!-- &#45;4504838364187110868 -->
<g id="node5" class="node">
<title>&#45;4504838364187110868</title>
<g id="a_node5"><a xlink:title="A Blockwise Layer with 534909 Tasks.&#10;Array Shape: (3, 8769, 61, 1606, 1906)&#10;Data Type: float64&#10;Chunk Size: (3, 1, 1, 1606, 1906)&#10;Chunk Type: numpy.ndarray&#10;">
<polygon fill="none" stroke="black" points="2206,-124 1108,-124 1108,-72 2206,-72 2206,-124"/>
<text text-anchor="middle" x="1657" y="-88" font-family="Helvetica,sans-Serif" font-size="40.00">open_dataset&#45;accumulated_global_radiation_J_m2&#45;#0</text>
</a>
</g>
</g>
<!-- 9091436288253401426&#45;&gt;&#45;4504838364187110868 -->
<g id="edge3" class="edge">
<title>9091436288253401426&#45;&gt;&#45;4504838364187110868</title>
<path fill="none" stroke="black" d="M1657,-36.31C1657,-43.79 1657,-52.84 1657,-61.64"/>
<polygon fill="black" stroke="black" points="1653.5,-61.74 1657,-71.74 1660.5,-61.74 1653.5,-61.74"/>
</g>
<!-- 7583129625521919781 -->
<g id="node6" class="node">
<title>7583129625521919781</title>
<g id="a_node6"><a xlink:title="A Materialized Layer with 61 Tasks.&#10;Array Shape: (3, 61, 1606, 1906)&#10;Data Type: float64&#10;Chunk Size: (3, 1, 1606, 1906)&#10;Chunk Type: numpy.ndarray&#10;">
<polygon fill="none" stroke="black" points="1722,-196 1592,-196 1592,-160 1722,-160 1722,-196"/>
<text text-anchor="middle" x="1657" y="-173" font-family="Helvetica,sans-Serif" font-size="20.00">getitem&#45;#2</text>
</a>
</g>
</g>
<!-- &#45;4504838364187110868&#45;&gt;7583129625521919781 -->
<g id="edge4" class="edge">
<title>&#45;4504838364187110868&#45;&gt;7583129625521919781</title>
<path fill="none" stroke="black" d="M1657,-124.11C1657,-132.16 1657,-141.12 1657,-149.34"/>
<polygon fill="black" stroke="black" points="1653.5,-149.59 1657,-159.59 1660.5,-149.59 1653.5,-149.59"/>
</g>
<!-- &#45;4928624674508919801 -->
<g id="node7" class="node">
<title>&#45;4928624674508919801</title>
<g id="a_node7"><a xlink:title="A Materialized Layer with 1 Tasks.&#10;">
<polygon fill="none" stroke="black" points="2534,-36 2184,-36 2184,0 2534,0 2534,-36"/>
<text text-anchor="middle" x="2359" y="-13" font-family="Helvetica,sans-Serif" font-size="20.00">original&#45;open_dataset&#45;latitude&#45;#3</text>
</a>
</g>
</g>
<!-- &#45;9135918172174512302 -->
<g id="node8" class="node">
<title>&#45;9135918172174512302</title>
<g id="a_node8"><a xlink:title="A Blockwise Layer with 32 Tasks.&#10;Array Shape: (1606, 1906)&#10;Data Type: float64&#10;Chunk Size: (201, 477)&#10;Chunk Type: numpy.ndarray&#10;">
<polygon fill="none" stroke="black" points="2493.5,-116 2224.5,-116 2224.5,-80 2493.5,-80 2493.5,-116"/>
<text text-anchor="middle" x="2359" y="-93" font-family="Helvetica,sans-Serif" font-size="20.00">open_dataset&#45;latitude&#45;#3</text>
</a>
</g>
</g>
<!-- &#45;4928624674508919801&#45;&gt;&#45;9135918172174512302 -->
<g id="edge5" class="edge">
<title>&#45;4928624674508919801&#45;&gt;&#45;9135918172174512302</title>
<path fill="none" stroke="black" d="M2359,-36.31C2359,-46.11 2359,-58.58 2359,-69.67"/>
<polygon fill="black" stroke="black" points="2355.5,-69.74 2359,-79.74 2362.5,-69.74 2355.5,-69.74"/>
</g>
<!-- 2426826641197627795 -->
<g id="node9" class="node">
<title>2426826641197627795</title>
<g id="a_node9"><a xlink:title="A Materialized Layer with 1 Tasks.&#10;">
<polygon fill="none" stroke="black" points="2920,-36 2552,-36 2552,0 2920,0 2920,-36"/>
<text text-anchor="middle" x="2736" y="-13" font-family="Helvetica,sans-Serif" font-size="20.00">original&#45;open_dataset&#45;longitude&#45;#3</text>
</a>
</g>
</g>
<!-- 5577140557425483866 -->
<g id="node10" class="node">
<title>5577140557425483866</title>
<g id="a_node10"><a xlink:title="A Blockwise Layer with 32 Tasks.&#10;Array Shape: (1606, 1906)&#10;Data Type: float64&#10;Chunk Size: (201, 477)&#10;Chunk Type: numpy.ndarray&#10;">
<polygon fill="none" stroke="black" points="2879.5,-116 2592.5,-116 2592.5,-80 2879.5,-80 2879.5,-116"/>
<text text-anchor="middle" x="2736" y="-93" font-family="Helvetica,sans-Serif" font-size="20.00">open_dataset&#45;longitude&#45;#3</text>
</a>
</g>
</g>
<!-- 2426826641197627795&#45;&gt;5577140557425483866 -->
<g id="edge6" class="edge">
<title>2426826641197627795&#45;&gt;5577140557425483866</title>
<path fill="none" stroke="black" d="M2736,-36.31C2736,-46.11 2736,-58.58 2736,-69.67"/>
<polygon fill="black" stroke="black" points="2732.5,-69.74 2736,-79.74 2739.5,-69.74 2732.5,-69.74"/>
</g>
<!-- 55732123359547217 -->
<g id="node11" class="node">
<title>55732123359547217</title>
<g id="a_node11"><a xlink:title="A Materialized Layer with 1 Tasks.&#10;">
<polygon fill="none" stroke="black" points="3443,-36 3023,-36 3023,0 3443,0 3443,-36"/>
<text text-anchor="middle" x="3233" y="-13" font-family="Helvetica,sans-Serif" font-size="20.00">original&#45;open_dataset&#45;temperature_K&#45;#0</text>
</a>
</g>
</g>
<!-- &#45;3843705531062144214 -->
<g id="node12" class="node">
<title>&#45;3843705531062144214</title>
<g id="a_node12"><a xlink:title="A Blockwise Layer with 534909 Tasks.&#10;Array Shape: (3, 8769, 61, 1606, 1906)&#10;Data Type: float64&#10;Chunk Size: (3, 1, 1, 1606, 1906)&#10;Chunk Type: numpy.ndarray&#10;">
<polygon fill="none" stroke="black" points="3569,-124 2897,-124 2897,-72 3569,-72 3569,-124"/>
<text text-anchor="middle" x="3233" y="-88" font-family="Helvetica,sans-Serif" font-size="40.00">open_dataset&#45;temperature_K&#45;#0</text>
</a>
</g>
</g>
<!-- 55732123359547217&#45;&gt;&#45;3843705531062144214 -->
<g id="edge7" class="edge">
<title>55732123359547217&#45;&gt;&#45;3843705531062144214</title>
<path fill="none" stroke="black" d="M3233,-36.31C3233,-43.79 3233,-52.84 3233,-61.64"/>
<polygon fill="black" stroke="black" points="3229.5,-61.74 3233,-71.74 3236.5,-61.74 3229.5,-61.74"/>
</g>
<!-- 6443210090399069914 -->
<g id="node13" class="node">
<title>6443210090399069914</title>
<g id="a_node13"><a xlink:title="A Materialized Layer with 61 Tasks.&#10;Array Shape: (3, 61, 1606, 1906)&#10;Data Type: float64&#10;Chunk Size: (3, 1, 1606, 1906)&#10;Chunk Type: numpy.ndarray&#10;">
<polygon fill="none" stroke="black" points="3298,-196 3168,-196 3168,-160 3298,-160 3298,-196"/>
<text text-anchor="middle" x="3233" y="-173" font-family="Helvetica,sans-Serif" font-size="20.00">getitem&#45;#4</text>
</a>
</g>
</g>
<!-- &#45;3843705531062144214&#45;&gt;6443210090399069914 -->
<g id="edge8" class="edge">
<title>&#45;3843705531062144214&#45;&gt;6443210090399069914</title>
<path fill="none" stroke="black" d="M3233,-124.11C3233,-132.16 3233,-141.12 3233,-149.34"/>
<polygon fill="black" stroke="black" points="3229.5,-149.59 3233,-159.59 3236.5,-149.59 3229.5,-149.59"/>
</g>
<!-- &#45;2438251763559010376 -->
<g id="node14" class="node">
<title>&#45;2438251763559010376</title>
<g id="a_node14"><a xlink:title="A Materialized Layer with 1 Tasks.&#10;">
<polygon fill="none" stroke="black" points="4094.5,-36 3699.5,-36 3699.5,0 4094.5,0 4094.5,-36"/>
<text text-anchor="middle" x="3897" y="-13" font-family="Helvetica,sans-Serif" font-size="20.00">original&#45;open_dataset&#45;wind_u_m_s&#45;#0</text>
</a>
</g>
</g>
<!-- &#45;1987275846396282023 -->
<g id="node15" class="node">
<title>&#45;1987275846396282023</title>
<g id="a_node15"><a xlink:title="A Blockwise Layer with 534909 Tasks.&#10;Array Shape: (3, 8769, 61, 1606, 1906)&#10;Data Type: float64&#10;Chunk Size: (3, 1, 1, 1606, 1906)&#10;Chunk Type: numpy.ndarray&#10;">
<polygon fill="none" stroke="black" points="4206.5,-124 3587.5,-124 3587.5,-72 4206.5,-72 4206.5,-124"/>
<text text-anchor="middle" x="3897" y="-88" font-family="Helvetica,sans-Serif" font-size="40.00">open_dataset&#45;wind_u_m_s&#45;#0</text>
</a>
</g>
</g>
<!-- &#45;2438251763559010376&#45;&gt;&#45;1987275846396282023 -->
<g id="edge9" class="edge">
<title>&#45;2438251763559010376&#45;&gt;&#45;1987275846396282023</title>
<path fill="none" stroke="black" d="M3897,-36.31C3897,-43.79 3897,-52.84 3897,-61.64"/>
<polygon fill="black" stroke="black" points="3893.5,-61.74 3897,-71.74 3900.5,-61.74 3893.5,-61.74"/>
</g>
<!-- 8581406594953598313 -->
<g id="node16" class="node">
<title>8581406594953598313</title>
<g id="a_node16"><a xlink:title="A Materialized Layer with 61 Tasks.&#10;Array Shape: (3, 61, 1606, 1906)&#10;Data Type: float64&#10;Chunk Size: (3, 1, 1606, 1906)&#10;Chunk Type: numpy.ndarray&#10;">
<polygon fill="none" stroke="black" points="3962,-196 3832,-196 3832,-160 3962,-160 3962,-196"/>
<text text-anchor="middle" x="3897" y="-173" font-family="Helvetica,sans-Serif" font-size="20.00">getitem&#45;#5</text>
</a>
</g>
</g>
<!-- &#45;1987275846396282023&#45;&gt;8581406594953598313 -->
<g id="edge10" class="edge">
<title>&#45;1987275846396282023&#45;&gt;8581406594953598313</title>
<path fill="none" stroke="black" d="M3897,-124.11C3897,-132.16 3897,-141.12 3897,-149.34"/>
<polygon fill="black" stroke="black" points="3893.5,-149.59 3897,-159.59 3900.5,-149.59 3893.5,-149.59"/>
</g>
<!-- 7696579294151815230 -->
<g id="node17" class="node">
<title>7696579294151815230</title>
<g id="a_node17"><a xlink:title="A Materialized Layer with 1 Tasks.&#10;">
<polygon fill="none" stroke="black" points="4730,-36 4336,-36 4336,0 4730,0 4730,-36"/>
<text text-anchor="middle" x="4533" y="-13" font-family="Helvetica,sans-Serif" font-size="20.00">original&#45;open_dataset&#45;wind_v_m_s&#45;#0</text>
</a>
</g>
</g>
<!-- &#45;128663945815795964 -->
<g id="node18" class="node">
<title>&#45;128663945815795964</title>
<g id="a_node18"><a xlink:title="A Blockwise Layer with 534909 Tasks.&#10;Array Shape: (3, 8769, 61, 1606, 1906)&#10;Data Type: float64&#10;Chunk Size: (3, 1, 1, 1606, 1906)&#10;Chunk Type: numpy.ndarray&#10;">
<polygon fill="none" stroke="black" points="4841.5,-124 4224.5,-124 4224.5,-72 4841.5,-72 4841.5,-124"/>
<text text-anchor="middle" x="4533" y="-88" font-family="Helvetica,sans-Serif" font-size="40.00">open_dataset&#45;wind_v_m_s&#45;#0</text>
</a>
</g>
</g>
<!-- 7696579294151815230&#45;&gt;&#45;128663945815795964 -->
<g id="edge11" class="edge">
<title>7696579294151815230&#45;&gt;&#45;128663945815795964</title>
<path fill="none" stroke="black" d="M4533,-36.31C4533,-43.79 4533,-52.84 4533,-61.64"/>
<polygon fill="black" stroke="black" points="4529.5,-61.74 4533,-71.74 4536.5,-61.74 4529.5,-61.74"/>
</g>
<!-- &#45;4287589231356072205 -->
<g id="node19" class="node">
<title>&#45;4287589231356072205</title>
<g id="a_node19"><a xlink:title="A Materialized Layer with 61 Tasks.&#10;Array Shape: (3, 61, 1606, 1906)&#10;Data Type: float64&#10;Chunk Size: (3, 1, 1606, 1906)&#10;Chunk Type: numpy.ndarray&#10;">
<polygon fill="none" stroke="black" points="4598,-196 4468,-196 4468,-160 4598,-160 4598,-196"/>
<text text-anchor="middle" x="4533" y="-173" font-family="Helvetica,sans-Serif" font-size="20.00">getitem&#45;#6</text>
</a>
</g>
</g>
<!-- &#45;128663945815795964&#45;&gt;&#45;4287589231356072205 -->
<g id="edge12" class="edge">
<title>&#45;128663945815795964&#45;&gt;&#45;4287589231356072205</title>
<path fill="none" stroke="black" d="M4533,-124.11C4533,-132.16 4533,-141.12 4533,-149.34"/>
<polygon fill="black" stroke="black" points="4529.5,-149.59 4533,-159.59 4536.5,-149.59 4529.5,-149.59"/>
</g>
</g>
</svg>
